<svg height="60" width="52" xmlns="http://www.w3.org/2000/svg"><g fill="none" fill-rule="evenodd"><path d="M51.234 11.375l-8.869-10.26C41.818.446 40.942 0 40.065 0h-30C8.424 0 7 1.338 7 3.123v53.754C7 58.55 8.314 60 10.066 60h38.868C50.577 60 52 58.662 52 56.877V13.383c0-.78-.328-1.45-.766-2.008zM40.066 3.123l8.54 9.925h-8.54zm8.868 53.754H10.066V3.123h27.043V13.16c0 1.673 1.314 3.123 3.066 3.123h8.76v40.594z" fill="#676d72" fill-rule="nonzero"/><path d="M31 11.385v12.23c0 .693-.556 1.385-1.333 1.385H1.333C.667 25 0 24.423 0 23.615v-12.23C0 10.692.556 10 1.333 10h28.334c.666.115 1.333.692 1.333 1.385z" fill="#fc2130"/><path d="M41.45 35h-24.9c-.886 0-1.55-.643-1.55-1.5s.664-1.5 1.55-1.5h24.9c.886 0 1.55.643 1.55 1.5 0 .75-.775 1.5-1.55 1.5zm0 7h-24.9c-.886 0-1.55-.643-1.55-1.5s.664-1.5 1.55-1.5h24.9c.886 0 1.55.643 1.55 1.5 0 .75-.775 1.5-1.55 1.5zm0 7h-24.9c-.886 0-1.55-.643-1.55-1.5s.664-1.5 1.55-1.5h24.9c.886 0 1.55.643 1.55 1.5s-.775 1.5-1.55 1.5z" fill="#676d72"/><g fill="#fff"><path d="M9.17 13.9c-.33-.113-.77-.113-1.21-.113H4.55v8.1h1.76v-2.925h1.76c.44 0 .77 0 1.1-.112.99-.338 1.76-1.125 1.76-2.475-.11-1.35-.77-2.138-1.76-2.475zm0 2.7c-.11.675-.66.9-1.32.9H6.31v-2.362h1.54c.66 0 1.21.224 1.32.9zm6.05-2.925h-3.19v8.1h3.19c2.42 0 3.85-1.463 3.85-4.05-.11-2.588-1.43-4.05-3.85-4.05zM15 20.313h-1.32V15.25H15c1.54 0 2.31.9 2.31 2.588 0 1.574-.77 2.474-2.31 2.474z" fill-rule="nonzero"/><path d="M25.78 15.25v-1.462h-5.61v8.1h1.76v-3.376h3.3V17.05h-3.3v-1.8z"/></g></g></svg>