<?xml version="1.0" encoding="UTF-8"?>
<svg width="60px" height="60px" viewBox="0 0 60 60" version="1.1" xmlns="http://www.w3.org/2000/svg" xmlns:xlink="http://www.w3.org/1999/xlink">
    <!-- Generator: sketchtool 64 (101010) - https://sketch.com -->
    <title>C0E86B9C-6C29-4BF1-828E-B462F5097830</title>
    <desc>Created with sketchtool.</desc>
    <g id="Page-1" stroke="none" stroke-width="1" fill="none" fill-rule="evenodd">
        <g id="Selectum-Family-Resort-Hotels" transform="translate(-795.000000, -2025.000000)">
            <g id="Konum/icon" transform="translate(795.000000, 2025.000000)">
                <g id="Group-30" fill="#E6D6B5">
                    <circle id="Oval-Copy-5" cx="30" cy="30" r="30"></circle>
                </g>
                <path d="M30,14 C36.0751322,14 41,18.9248678 41,25 C41,31.0751322 30,46 30,46 C30,46 19,31.0751322 19,25 C19,18.9248678 23.9248678,14 30,14 Z M30,21 C27.790861,21 26,22.790861 26,25 C26,27.209139 27.790861,29 30,29 C32.209139,29 34,27.209139 34,25 C34,22.790861 32.209139,21 30,21 Z" id="Lokasyon/icon" fill="#FFFFFF"></path>
            </g>
        </g>
    </g>
</svg>