<svg xmlns="http://www.w3.org/2000/svg" width="261" height="996" viewBox="0 0 261 996"><path fill="#DED6D6" d="M23.5.092c46.721-1.945 83.709 27.232 93.443 70.025 7.787 38.902-9.734 79.75-52.562 85.585 13.627 9.726 31.148 19.452 46.721 29.177l25.308 15.561 23.36 15.562c23.361 13.615 38.935 40.847 38.935 70.024 0 5.836 0 13.616-1.947 19.452l3.894 1.945 3.893 1.945C237.64 332.71 261 367.722 261 408.57v11.67c-1.947 19.452-9.734 38.903-21.414 56.41l-1.946 1.944-.866.857c-7.498 7.356-14.997 12.976-22.495 18.595 9.733 5.835 17.52 11.67 23.36 19.451l1.947 1.945.505.68c11.4 15.446 18.99 34.643 20.909 55.73v11.67c0 40.848-21.414 75.86-56.455 99.202l-3.893 1.945-3.894 1.945c1.825 5.47 1.94 10.941 1.946 18.015v1.436c0 29.177-15.573 54.464-38.934 70.025l-23.36 15.561-25.308 15.561c-15.573 9.726-33.094 19.452-46.72 29.177 42.827 5.836 60.348 46.684 52.56 85.586C107.21 968.768 70.223 996 23.5 996c-8.035 0-15.923-1.03-23.5-2.971v-24.533c34.983 15.705 79.945-1.312 89.689-38.63 5.84-21.397 3.893-44.739-13.628-56.41-9.733-7.78-33.094-15.56-44.774-7.78-5.84 1.945-17.52 9.726-17.52 23.342 0 11.67 7.786 17.506 13.626 19.451 35.041 7.78 21.414 31.122 11.68 31.122-13.93 0-28.856-4.98-39.073-16.364v-67.06c3.308-3.694 7.254-7.04 11.82-9.942l35.04-23.342c3.894-1.945 5.84-3.89 9.734-5.835l38.935-23.342 17.52-11.67 33.094-21.397.466-.294c15.302-9.782 24.822-27.133 22.895-46.39v-3.89l-81.762 52.519-3.894 3.89-7.787 5.836-29.2 19.451C31.287 801.487 17.66 811.212.139 822.883l-.14.094v-92.21c6.764-11.304 16.182-21.013 27.394-28.482l23.361-15.561 19.467-11.671V324.929l-19.467-11.67-23.36-15.562-.699-.412C15.79 290.758 6.622 281.25-.001 269.973l-.002-94.195c.689.444 1.385.884 2.09 1.32l46.72 31.123 29.201 19.451 7.787 5.836 3.894 3.89 81.762 52.519v-3.89c0-19.452-9.734-36.958-25.308-46.684h-1.946l-33.095-21.396-17.52-11.671-38.934-23.342c-3.894-1.945-5.84-3.89-9.734-5.835L9.873 153.757c-3.702-2.69-6.996-5.554-9.873-8.572V73.45c9.627-9.05 23.377-13.06 37.127-13.06 9.734 0 21.414 23.342-11.68 31.123-5.84 1.945-13.627 7.78-13.627 19.451s11.68 19.452 17.52 23.342c11.68 7.78 35.041 0 44.775-7.78 15.574-11.671 19.467-35.013 13.627-56.41C78.178 33.487 34.684 17.72-.001 31.359V3.378C7.708 1.236 15.604.093 23.5.093zm155.738 515.46H153.93c-23.36 3.89-44.774 19.451-50.614 42.793-5.84 21.396-3.894 44.738 13.627 56.409 9.733 7.78 33.094 15.56 44.774 7.78 5.84-1.945 17.52-9.725 17.52-23.341 0-11.671-7.786-17.506-13.626-19.452-35.041-7.78-21.414-31.122-11.68-31.122 19.467 0 40.88 9.726 48.667 33.068 7.787 23.341 0 46.683-21.414 60.299l-35.04 23.341c-3.894 1.945-5.84 3.89-9.734 5.836l-38.935 23.341-17.52 11.671-33.094 21.397h-1.947l-.466.294c-15.302 9.782-24.841 27.132-24.841 46.389v3.89l81.762-52.519 3.893-3.89 7.787-5.835 29.201-19.452c15.574-9.725 29.2-19.45 46.721-31.122 52.562-36.957 60.349-95.311 23.361-132.269-9.734-9.725-21.414-15.56-33.094-17.506zM13.766 317.148c7.787 5.836 15.574 11.671 23.361 15.562l7.787 3.89v320.947l-7.787 3.89C28.031 666.395 13.666 675.213 0 688.34l-.001-38.508c4.985-3.45 10.226-6.72 15.714-9.79V354.106c-5.237-2.093-10.475-5.313-15.713-9.053v-20.68l7.926-5.28zm1.947-95.311v3.89c0 19.452 9.734 36.958 25.307 46.683h1.947l33.094 21.397 17.521 11.67 38.934 23.342c3.894 1.945 5.84 3.89 9.734 5.836l35.041 23.341c21.414 15.561 29.2 36.958 21.414 60.3-5.84 23.341-27.254 33.067-48.668 33.067-9.734 0-21.414-23.342 11.68-31.122 5.84-1.946 13.627-7.781 13.627-19.452 0-11.67-11.68-19.451-17.52-23.341-11.68-7.78-35.041 0-44.775 7.78-15.574 11.67-19.467 35.013-13.627 56.409 5.84 23.342 27.254 38.903 50.615 42.793h25.307c11.68-1.945 23.36-7.78 33.095-17.506 40.88-38.903 33.094-97.257-19.468-132.27-17.52-11.67-31.147-21.396-50.614-31.121l-29.201-19.452-7.787-5.835-3.894-3.89-81.762-52.52z" opacity=".14"></path></svg>